<svg width="16" height="16" viewBox="0 0 16 16" fill="none" xmlns="http://www.w3.org/2000/svg">
<path d="M2.375 0.500063C1.34687 0.500063 0.5 1.34694 0.5 2.37506V13.6251C0.5 14.6605 1.33958 15.5001 2.375 15.5001H13.625C14.6604 15.5001 15.5 14.6605 15.5 13.6251V4.87506C15.5 3.83965 14.6604 3.00006 13.625 3.00006H2.375C2.03 3.00006 1.75 2.72006 1.75 2.37506C1.75 2.02235 2.02229 1.75006 2.375 1.75006H12.7917C12.8745 1.75123 12.9567 1.73593 13.0336 1.70505C13.1104 1.67417 13.1804 1.62832 13.2394 1.57016C13.2983 1.51201 13.3452 1.44271 13.3771 1.3663C13.4091 1.28989 13.4256 1.20789 13.4256 1.12506C13.4256 1.04223 13.4091 0.960232 13.3771 0.883821C13.3452 0.80741 13.2983 0.738115 13.2394 0.679962C13.1804 0.62181 13.1104 0.575959 13.0336 0.545076C12.9567 0.514192 12.8745 0.498891 12.7917 0.500063H2.375ZM11.9583 8.00006C12.5337 8.00006 13 8.46631 13 9.04173C13 9.61715 12.5337 10.0834 11.9583 10.0834C11.3829 10.0834 10.9167 9.61715 10.9167 9.04173C10.9167 8.46631 11.3829 8.00006 11.9583 8.00006Z" fill="white"/>
</svg>